<svg xmlns="http://www.w3.org/2000/svg" viewBox="0 0 1600 900" preserveAspectRatio="xMidYMid slice"><defs><linearGradient id="bg" x1="0" y1="0" x2="1" y2="1"><stop offset="0" stop-color="#07110d"/><stop offset=".48" stop-color="#10241a"/><stop offset="1" stop-color="#040907"/></linearGradient><radialGradient id="sun" cx="68%" cy="34%"><stop offset="0" stop-color="#e5a93c" stop-opacity=".34"/><stop offset=".35" stop-color="#8e7339" stop-opacity=".12"/><stop offset="1" stop-color="#000" stop-opacity="0"/></radialGradient><radialGradient id="field" cx="32%" cy="70%"><stop offset="0" stop-color="#3e7b54" stop-opacity=".32"/><stop offset="1" stop-color="#000" stop-opacity="0"/></radialGradient><filter id="blur"><feGaussianBlur stdDeviation="28"/></filter></defs><rect width="1600" height="900" fill="url(#bg)"/><rect width="1600" height="900" fill="url(#sun)"/><rect width="1600" height="900" fill="url(#field)"/><g opacity=".22" filter="url(#blur)"><ellipse cx="1180" cy="520" rx="420" ry="180" fill="#e5a93c"/><ellipse cx="410" cy="650" rx="380" ry="170" fill="#3e7b54"/></g><g fill="none" stroke="#e8f4e8" stroke-opacity=".08"><path d="M0 770 C250 670 420 690 700 760 S1180 850 1600 700" stroke-width="2"/><path d="M0 805 C280 700 470 720 760 790 S1230 865 1600 730"/><path d="M110 0 L80 900 M260 0 L230 900 M410 0 L380 900 M560 0 L530 900 M710 0 L680 900 M860 0 L830 900 M1010 0 L980 900 M1160 0 L1130 900 M1310 0 L1280 900 M1460 0 L1430 900"/></g></svg>